G04 #@! TF.GenerationSoftware,KiCad,Pcbnew,5.0.2-bee76a0~70~ubuntu16.04.1*
G04 #@! TF.CreationDate,2019-11-21T15:25:57-08:00*
G04 #@! TF.ProjectId,led-panel,6c65642d-7061-46e6-956c-2e6b69636164,rev?*
G04 #@! TF.SameCoordinates,Original*
G04 #@! TF.FileFunction,Copper,L2,Bot*
G04 #@! TF.FilePolarity,Positive*
%FSLAX46Y46*%
G04 Gerber Fmt 4.6, Leading zero omitted, Abs format (unit mm)*
G04 Created by KiCad (PCBNEW 5.0.2-bee76a0~70~ubuntu16.04.1) date Thu 21 Nov 2019 03:25:57 PM PST*
%MOMM*%
%LPD*%
G01*
G04 APERTURE LIST*
G04 #@! TA.AperFunction,ComponentPad*
%ADD10R,1.800000X1.800000*%
G04 #@! TD*
G04 #@! TA.AperFunction,ComponentPad*
%ADD11C,1.800000*%
G04 #@! TD*
G04 #@! TA.AperFunction,ComponentPad*
%ADD12R,1.700000X1.700000*%
G04 #@! TD*
G04 #@! TA.AperFunction,ComponentPad*
%ADD13O,1.700000X1.700000*%
G04 #@! TD*
G04 #@! TA.AperFunction,ViaPad*
%ADD14C,0.800000*%
G04 #@! TD*
G04 #@! TA.AperFunction,Conductor*
%ADD15C,0.250000*%
G04 #@! TD*
G04 APERTURE END LIST*
D10*
G04 #@! TO.P,D39,1*
G04 #@! TO.N,Net-(D32-Pad1)*
X127000000Y-99060000D03*
D11*
G04 #@! TO.P,D39,2*
G04 #@! TO.N,Net-(D103-Pad2)*
X129540000Y-99060000D03*
G04 #@! TD*
G04 #@! TO.P,D0,2*
G04 #@! TO.N,Net-(D0-Pad2)*
X109220000Y-63500000D03*
D10*
G04 #@! TO.P,D0,1*
G04 #@! TO.N,Net-(D0-Pad1)*
X106680000Y-63500000D03*
G04 #@! TD*
G04 #@! TO.P,D1,1*
G04 #@! TO.N,Net-(D0-Pad1)*
X106680000Y-68580000D03*
D11*
G04 #@! TO.P,D1,2*
G04 #@! TO.N,Net-(D1-Pad2)*
X109220000Y-68580000D03*
G04 #@! TD*
D10*
G04 #@! TO.P,D2,1*
G04 #@! TO.N,Net-(D0-Pad1)*
X106680000Y-73660000D03*
D11*
G04 #@! TO.P,D2,2*
G04 #@! TO.N,Net-(D10-Pad2)*
X109220000Y-73660000D03*
G04 #@! TD*
D10*
G04 #@! TO.P,D3,1*
G04 #@! TO.N,Net-(D0-Pad1)*
X106680000Y-78740000D03*
D11*
G04 #@! TO.P,D3,2*
G04 #@! TO.N,Net-(D107-Pad2)*
X109220000Y-78740000D03*
G04 #@! TD*
G04 #@! TO.P,D4,2*
G04 #@! TO.N,Net-(D100-Pad2)*
X109220000Y-83820000D03*
D10*
G04 #@! TO.P,D4,1*
G04 #@! TO.N,Net-(D0-Pad1)*
X106680000Y-83820000D03*
G04 #@! TD*
G04 #@! TO.P,D5,1*
G04 #@! TO.N,Net-(D0-Pad1)*
X106680000Y-88900000D03*
D11*
G04 #@! TO.P,D5,2*
G04 #@! TO.N,Net-(D101-Pad2)*
X109220000Y-88900000D03*
G04 #@! TD*
D10*
G04 #@! TO.P,D6,1*
G04 #@! TO.N,Net-(D0-Pad1)*
X106680000Y-93980000D03*
D11*
G04 #@! TO.P,D6,2*
G04 #@! TO.N,Net-(D102-Pad2)*
X109220000Y-93980000D03*
G04 #@! TD*
D10*
G04 #@! TO.P,D7,1*
G04 #@! TO.N,Net-(D0-Pad1)*
X106680000Y-99060000D03*
D11*
G04 #@! TO.P,D7,2*
G04 #@! TO.N,Net-(D103-Pad2)*
X109220000Y-99060000D03*
G04 #@! TD*
D10*
G04 #@! TO.P,D8,1*
G04 #@! TO.N,Net-(D10-Pad1)*
X111760000Y-63500000D03*
D11*
G04 #@! TO.P,D8,2*
G04 #@! TO.N,Net-(D0-Pad2)*
X114300000Y-63500000D03*
G04 #@! TD*
G04 #@! TO.P,D9,2*
G04 #@! TO.N,Net-(D1-Pad2)*
X114300000Y-68580000D03*
D10*
G04 #@! TO.P,D9,1*
G04 #@! TO.N,Net-(D10-Pad1)*
X111760000Y-68580000D03*
G04 #@! TD*
D11*
G04 #@! TO.P,D10,2*
G04 #@! TO.N,Net-(D10-Pad2)*
X114300000Y-73660000D03*
D10*
G04 #@! TO.P,D10,1*
G04 #@! TO.N,Net-(D10-Pad1)*
X111760000Y-73660000D03*
G04 #@! TD*
D11*
G04 #@! TO.P,D11,2*
G04 #@! TO.N,Net-(D107-Pad2)*
X114300000Y-78740000D03*
D10*
G04 #@! TO.P,D11,1*
G04 #@! TO.N,Net-(D10-Pad1)*
X111760000Y-78740000D03*
G04 #@! TD*
G04 #@! TO.P,D12,1*
G04 #@! TO.N,Net-(D10-Pad1)*
X111760000Y-83820000D03*
D11*
G04 #@! TO.P,D12,2*
G04 #@! TO.N,Net-(D100-Pad2)*
X114300000Y-83820000D03*
G04 #@! TD*
G04 #@! TO.P,D13,2*
G04 #@! TO.N,Net-(D101-Pad2)*
X114300000Y-88900000D03*
D10*
G04 #@! TO.P,D13,1*
G04 #@! TO.N,Net-(D10-Pad1)*
X111760000Y-88900000D03*
G04 #@! TD*
D11*
G04 #@! TO.P,D14,2*
G04 #@! TO.N,Net-(D102-Pad2)*
X114300000Y-93980000D03*
D10*
G04 #@! TO.P,D14,1*
G04 #@! TO.N,Net-(D10-Pad1)*
X111760000Y-93980000D03*
G04 #@! TD*
D11*
G04 #@! TO.P,D15,2*
G04 #@! TO.N,Net-(D103-Pad2)*
X114300000Y-99060000D03*
D10*
G04 #@! TO.P,D15,1*
G04 #@! TO.N,Net-(D10-Pad1)*
X111760000Y-99060000D03*
G04 #@! TD*
G04 #@! TO.P,D16,1*
G04 #@! TO.N,Net-(D16-Pad1)*
X116840000Y-63500000D03*
D11*
G04 #@! TO.P,D16,2*
G04 #@! TO.N,Net-(D0-Pad2)*
X119380000Y-63500000D03*
G04 #@! TD*
D10*
G04 #@! TO.P,D17,1*
G04 #@! TO.N,Net-(D16-Pad1)*
X116840000Y-68580000D03*
D11*
G04 #@! TO.P,D17,2*
G04 #@! TO.N,Net-(D1-Pad2)*
X119380000Y-68580000D03*
G04 #@! TD*
D10*
G04 #@! TO.P,D18,1*
G04 #@! TO.N,Net-(D16-Pad1)*
X116840000Y-73660000D03*
D11*
G04 #@! TO.P,D18,2*
G04 #@! TO.N,Net-(D10-Pad2)*
X119380000Y-73660000D03*
G04 #@! TD*
D10*
G04 #@! TO.P,D19,1*
G04 #@! TO.N,Net-(D16-Pad1)*
X116840000Y-78740000D03*
D11*
G04 #@! TO.P,D19,2*
G04 #@! TO.N,Net-(D107-Pad2)*
X119380000Y-78740000D03*
G04 #@! TD*
D10*
G04 #@! TO.P,D20,1*
G04 #@! TO.N,Net-(D16-Pad1)*
X116840000Y-83820000D03*
D11*
G04 #@! TO.P,D20,2*
G04 #@! TO.N,Net-(D100-Pad2)*
X119380000Y-83820000D03*
G04 #@! TD*
D10*
G04 #@! TO.P,D21,1*
G04 #@! TO.N,Net-(D16-Pad1)*
X116840000Y-88900000D03*
D11*
G04 #@! TO.P,D21,2*
G04 #@! TO.N,Net-(D101-Pad2)*
X119380000Y-88900000D03*
G04 #@! TD*
D10*
G04 #@! TO.P,D22,1*
G04 #@! TO.N,Net-(D16-Pad1)*
X116840000Y-93980000D03*
D11*
G04 #@! TO.P,D22,2*
G04 #@! TO.N,Net-(D102-Pad2)*
X119380000Y-93980000D03*
G04 #@! TD*
D10*
G04 #@! TO.P,D23,1*
G04 #@! TO.N,Net-(D16-Pad1)*
X116840000Y-99060000D03*
D11*
G04 #@! TO.P,D23,2*
G04 #@! TO.N,Net-(D103-Pad2)*
X119380000Y-99060000D03*
G04 #@! TD*
G04 #@! TO.P,D24,2*
G04 #@! TO.N,Net-(D0-Pad2)*
X124460000Y-63500000D03*
D10*
G04 #@! TO.P,D24,1*
G04 #@! TO.N,Net-(D24-Pad1)*
X121920000Y-63500000D03*
G04 #@! TD*
D11*
G04 #@! TO.P,D25,2*
G04 #@! TO.N,Net-(D1-Pad2)*
X124460000Y-68580000D03*
D10*
G04 #@! TO.P,D25,1*
G04 #@! TO.N,Net-(D24-Pad1)*
X121920000Y-68580000D03*
G04 #@! TD*
D11*
G04 #@! TO.P,D26,2*
G04 #@! TO.N,Net-(D10-Pad2)*
X124460000Y-73660000D03*
D10*
G04 #@! TO.P,D26,1*
G04 #@! TO.N,Net-(D24-Pad1)*
X121920000Y-73660000D03*
G04 #@! TD*
D11*
G04 #@! TO.P,D27,2*
G04 #@! TO.N,Net-(D107-Pad2)*
X124460000Y-78740000D03*
D10*
G04 #@! TO.P,D27,1*
G04 #@! TO.N,Net-(D24-Pad1)*
X121920000Y-78740000D03*
G04 #@! TD*
D11*
G04 #@! TO.P,D28,2*
G04 #@! TO.N,Net-(D100-Pad2)*
X124460000Y-83820000D03*
D10*
G04 #@! TO.P,D28,1*
G04 #@! TO.N,Net-(D24-Pad1)*
X121920000Y-83820000D03*
G04 #@! TD*
D11*
G04 #@! TO.P,D29,2*
G04 #@! TO.N,Net-(D101-Pad2)*
X124460000Y-88900000D03*
D10*
G04 #@! TO.P,D29,1*
G04 #@! TO.N,Net-(D24-Pad1)*
X121920000Y-88900000D03*
G04 #@! TD*
D11*
G04 #@! TO.P,D30,2*
G04 #@! TO.N,Net-(D102-Pad2)*
X124460000Y-93980000D03*
D10*
G04 #@! TO.P,D30,1*
G04 #@! TO.N,Net-(D24-Pad1)*
X121920000Y-93980000D03*
G04 #@! TD*
G04 #@! TO.P,D31,1*
G04 #@! TO.N,Net-(D24-Pad1)*
X121920000Y-99060000D03*
D11*
G04 #@! TO.P,D31,2*
G04 #@! TO.N,Net-(D103-Pad2)*
X124460000Y-99060000D03*
G04 #@! TD*
D10*
G04 #@! TO.P,D32,1*
G04 #@! TO.N,Net-(D32-Pad1)*
X127000000Y-63500000D03*
D11*
G04 #@! TO.P,D32,2*
G04 #@! TO.N,Net-(D0-Pad2)*
X129540000Y-63500000D03*
G04 #@! TD*
D10*
G04 #@! TO.P,D33,1*
G04 #@! TO.N,Net-(D32-Pad1)*
X127000000Y-68580000D03*
D11*
G04 #@! TO.P,D33,2*
G04 #@! TO.N,Net-(D1-Pad2)*
X129540000Y-68580000D03*
G04 #@! TD*
D10*
G04 #@! TO.P,D34,1*
G04 #@! TO.N,Net-(D32-Pad1)*
X127000000Y-73660000D03*
D11*
G04 #@! TO.P,D34,2*
G04 #@! TO.N,Net-(D10-Pad2)*
X129540000Y-73660000D03*
G04 #@! TD*
D10*
G04 #@! TO.P,D35,1*
G04 #@! TO.N,Net-(D32-Pad1)*
X127000000Y-78740000D03*
D11*
G04 #@! TO.P,D35,2*
G04 #@! TO.N,Net-(D107-Pad2)*
X129540000Y-78740000D03*
G04 #@! TD*
G04 #@! TO.P,D36,2*
G04 #@! TO.N,Net-(D100-Pad2)*
X129540000Y-83820000D03*
D10*
G04 #@! TO.P,D36,1*
G04 #@! TO.N,Net-(D32-Pad1)*
X127000000Y-83820000D03*
G04 #@! TD*
G04 #@! TO.P,D37,1*
G04 #@! TO.N,Net-(D32-Pad1)*
X127000000Y-88900000D03*
D11*
G04 #@! TO.P,D37,2*
G04 #@! TO.N,Net-(D101-Pad2)*
X129540000Y-88900000D03*
G04 #@! TD*
D10*
G04 #@! TO.P,D38,1*
G04 #@! TO.N,Net-(D32-Pad1)*
X127000000Y-93980000D03*
D11*
G04 #@! TO.P,D38,2*
G04 #@! TO.N,Net-(D102-Pad2)*
X129540000Y-93980000D03*
G04 #@! TD*
G04 #@! TO.P,D40,2*
G04 #@! TO.N,Net-(D0-Pad2)*
X134620000Y-63500000D03*
D10*
G04 #@! TO.P,D40,1*
G04 #@! TO.N,Net-(D40-Pad1)*
X132080000Y-63500000D03*
G04 #@! TD*
D11*
G04 #@! TO.P,D41,2*
G04 #@! TO.N,Net-(D1-Pad2)*
X134620000Y-68580000D03*
D10*
G04 #@! TO.P,D41,1*
G04 #@! TO.N,Net-(D40-Pad1)*
X132080000Y-68580000D03*
G04 #@! TD*
D11*
G04 #@! TO.P,D42,2*
G04 #@! TO.N,Net-(D10-Pad2)*
X134620000Y-73660000D03*
D10*
G04 #@! TO.P,D42,1*
G04 #@! TO.N,Net-(D40-Pad1)*
X132080000Y-73660000D03*
G04 #@! TD*
D11*
G04 #@! TO.P,D43,2*
G04 #@! TO.N,Net-(D107-Pad2)*
X134620000Y-78740000D03*
D10*
G04 #@! TO.P,D43,1*
G04 #@! TO.N,Net-(D40-Pad1)*
X132080000Y-78740000D03*
G04 #@! TD*
D11*
G04 #@! TO.P,D44,2*
G04 #@! TO.N,Net-(D100-Pad2)*
X134620000Y-83820000D03*
D10*
G04 #@! TO.P,D44,1*
G04 #@! TO.N,Net-(D40-Pad1)*
X132080000Y-83820000D03*
G04 #@! TD*
D11*
G04 #@! TO.P,D45,2*
G04 #@! TO.N,Net-(D101-Pad2)*
X134620000Y-88900000D03*
D10*
G04 #@! TO.P,D45,1*
G04 #@! TO.N,Net-(D40-Pad1)*
X132080000Y-88900000D03*
G04 #@! TD*
D11*
G04 #@! TO.P,D46,2*
G04 #@! TO.N,Net-(D102-Pad2)*
X134620000Y-93980000D03*
D10*
G04 #@! TO.P,D46,1*
G04 #@! TO.N,Net-(D40-Pad1)*
X132080000Y-93980000D03*
G04 #@! TD*
D11*
G04 #@! TO.P,D47,2*
G04 #@! TO.N,Net-(D103-Pad2)*
X134620000Y-99060000D03*
D10*
G04 #@! TO.P,D47,1*
G04 #@! TO.N,Net-(D40-Pad1)*
X132080000Y-99060000D03*
G04 #@! TD*
G04 #@! TO.P,D48,1*
G04 #@! TO.N,Net-(D48-Pad1)*
X137160000Y-63500000D03*
D11*
G04 #@! TO.P,D48,2*
G04 #@! TO.N,Net-(D0-Pad2)*
X139700000Y-63500000D03*
G04 #@! TD*
D10*
G04 #@! TO.P,D49,1*
G04 #@! TO.N,Net-(D48-Pad1)*
X137160000Y-68580000D03*
D11*
G04 #@! TO.P,D49,2*
G04 #@! TO.N,Net-(D1-Pad2)*
X139700000Y-68580000D03*
G04 #@! TD*
D10*
G04 #@! TO.P,D50,1*
G04 #@! TO.N,Net-(D48-Pad1)*
X137160000Y-73660000D03*
D11*
G04 #@! TO.P,D50,2*
G04 #@! TO.N,Net-(D10-Pad2)*
X139700000Y-73660000D03*
G04 #@! TD*
D10*
G04 #@! TO.P,D51,1*
G04 #@! TO.N,Net-(D48-Pad1)*
X137160000Y-78740000D03*
D11*
G04 #@! TO.P,D51,2*
G04 #@! TO.N,Net-(D107-Pad2)*
X139700000Y-78740000D03*
G04 #@! TD*
D10*
G04 #@! TO.P,D52,1*
G04 #@! TO.N,Net-(D48-Pad1)*
X137160000Y-83820000D03*
D11*
G04 #@! TO.P,D52,2*
G04 #@! TO.N,Net-(D100-Pad2)*
X139700000Y-83820000D03*
G04 #@! TD*
D10*
G04 #@! TO.P,D53,1*
G04 #@! TO.N,Net-(D48-Pad1)*
X137160000Y-88900000D03*
D11*
G04 #@! TO.P,D53,2*
G04 #@! TO.N,Net-(D101-Pad2)*
X139700000Y-88900000D03*
G04 #@! TD*
D10*
G04 #@! TO.P,D54,1*
G04 #@! TO.N,Net-(D48-Pad1)*
X137160000Y-93980000D03*
D11*
G04 #@! TO.P,D54,2*
G04 #@! TO.N,Net-(D102-Pad2)*
X139700000Y-93980000D03*
G04 #@! TD*
D10*
G04 #@! TO.P,D55,1*
G04 #@! TO.N,Net-(D48-Pad1)*
X137160000Y-99060000D03*
D11*
G04 #@! TO.P,D55,2*
G04 #@! TO.N,Net-(D103-Pad2)*
X139700000Y-99060000D03*
G04 #@! TD*
G04 #@! TO.P,D56,2*
G04 #@! TO.N,Net-(D0-Pad2)*
X144780000Y-63500000D03*
D10*
G04 #@! TO.P,D56,1*
G04 #@! TO.N,Net-(D56-Pad1)*
X142240000Y-63500000D03*
G04 #@! TD*
D11*
G04 #@! TO.P,D57,2*
G04 #@! TO.N,Net-(D1-Pad2)*
X144780000Y-68580000D03*
D10*
G04 #@! TO.P,D57,1*
G04 #@! TO.N,Net-(D56-Pad1)*
X142240000Y-68580000D03*
G04 #@! TD*
D11*
G04 #@! TO.P,D58,2*
G04 #@! TO.N,Net-(D10-Pad2)*
X144780000Y-73660000D03*
D10*
G04 #@! TO.P,D58,1*
G04 #@! TO.N,Net-(D56-Pad1)*
X142240000Y-73660000D03*
G04 #@! TD*
D11*
G04 #@! TO.P,D59,2*
G04 #@! TO.N,Net-(D107-Pad2)*
X144780000Y-78740000D03*
D10*
G04 #@! TO.P,D59,1*
G04 #@! TO.N,Net-(D56-Pad1)*
X142240000Y-78740000D03*
G04 #@! TD*
D11*
G04 #@! TO.P,D60,2*
G04 #@! TO.N,Net-(D100-Pad2)*
X144780000Y-83820000D03*
D10*
G04 #@! TO.P,D60,1*
G04 #@! TO.N,Net-(D56-Pad1)*
X142240000Y-83820000D03*
G04 #@! TD*
D11*
G04 #@! TO.P,D61,2*
G04 #@! TO.N,Net-(D101-Pad2)*
X144780000Y-88900000D03*
D10*
G04 #@! TO.P,D61,1*
G04 #@! TO.N,Net-(D56-Pad1)*
X142240000Y-88900000D03*
G04 #@! TD*
D11*
G04 #@! TO.P,D62,2*
G04 #@! TO.N,Net-(D102-Pad2)*
X144780000Y-93980000D03*
D10*
G04 #@! TO.P,D62,1*
G04 #@! TO.N,Net-(D56-Pad1)*
X142240000Y-93980000D03*
G04 #@! TD*
G04 #@! TO.P,D63,1*
G04 #@! TO.N,Net-(D56-Pad1)*
X142240000Y-99060000D03*
D11*
G04 #@! TO.P,D63,2*
G04 #@! TO.N,Net-(D103-Pad2)*
X144780000Y-99060000D03*
G04 #@! TD*
G04 #@! TO.P,D64,2*
G04 #@! TO.N,Net-(D0-Pad2)*
X149860000Y-63500000D03*
D10*
G04 #@! TO.P,D64,1*
G04 #@! TO.N,Net-(D64-Pad1)*
X147320000Y-63500000D03*
G04 #@! TD*
G04 #@! TO.P,D65,1*
G04 #@! TO.N,Net-(D64-Pad1)*
X147320000Y-68580000D03*
D11*
G04 #@! TO.P,D65,2*
G04 #@! TO.N,Net-(D1-Pad2)*
X149860000Y-68580000D03*
G04 #@! TD*
D10*
G04 #@! TO.P,D66,1*
G04 #@! TO.N,Net-(D64-Pad1)*
X147320000Y-73660000D03*
D11*
G04 #@! TO.P,D66,2*
G04 #@! TO.N,Net-(D10-Pad2)*
X149860000Y-73660000D03*
G04 #@! TD*
D10*
G04 #@! TO.P,D67,1*
G04 #@! TO.N,Net-(D64-Pad1)*
X147320000Y-78740000D03*
D11*
G04 #@! TO.P,D67,2*
G04 #@! TO.N,Net-(D107-Pad2)*
X149860000Y-78740000D03*
G04 #@! TD*
D10*
G04 #@! TO.P,D68,1*
G04 #@! TO.N,Net-(D64-Pad1)*
X147320000Y-83820000D03*
D11*
G04 #@! TO.P,D68,2*
G04 #@! TO.N,Net-(D100-Pad2)*
X149860000Y-83820000D03*
G04 #@! TD*
D10*
G04 #@! TO.P,D69,1*
G04 #@! TO.N,Net-(D64-Pad1)*
X147320000Y-88900000D03*
D11*
G04 #@! TO.P,D69,2*
G04 #@! TO.N,Net-(D101-Pad2)*
X149860000Y-88900000D03*
G04 #@! TD*
D10*
G04 #@! TO.P,D70,1*
G04 #@! TO.N,Net-(D64-Pad1)*
X147320000Y-93980000D03*
D11*
G04 #@! TO.P,D70,2*
G04 #@! TO.N,Net-(D102-Pad2)*
X149860000Y-93980000D03*
G04 #@! TD*
D10*
G04 #@! TO.P,D71,1*
G04 #@! TO.N,Net-(D64-Pad1)*
X147320000Y-99060000D03*
D11*
G04 #@! TO.P,D71,2*
G04 #@! TO.N,Net-(D103-Pad2)*
X149860000Y-99060000D03*
G04 #@! TD*
G04 #@! TO.P,D72,2*
G04 #@! TO.N,Net-(D0-Pad2)*
X154940000Y-63500000D03*
D10*
G04 #@! TO.P,D72,1*
G04 #@! TO.N,Net-(D72-Pad1)*
X152400000Y-63500000D03*
G04 #@! TD*
D11*
G04 #@! TO.P,D73,2*
G04 #@! TO.N,Net-(D1-Pad2)*
X154940000Y-68580000D03*
D10*
G04 #@! TO.P,D73,1*
G04 #@! TO.N,Net-(D72-Pad1)*
X152400000Y-68580000D03*
G04 #@! TD*
D11*
G04 #@! TO.P,D74,2*
G04 #@! TO.N,Net-(D10-Pad2)*
X154940000Y-73660000D03*
D10*
G04 #@! TO.P,D74,1*
G04 #@! TO.N,Net-(D72-Pad1)*
X152400000Y-73660000D03*
G04 #@! TD*
D11*
G04 #@! TO.P,D75,2*
G04 #@! TO.N,Net-(D107-Pad2)*
X154940000Y-78740000D03*
D10*
G04 #@! TO.P,D75,1*
G04 #@! TO.N,Net-(D72-Pad1)*
X152400000Y-78740000D03*
G04 #@! TD*
D11*
G04 #@! TO.P,D76,2*
G04 #@! TO.N,Net-(D100-Pad2)*
X154940000Y-83820000D03*
D10*
G04 #@! TO.P,D76,1*
G04 #@! TO.N,Net-(D72-Pad1)*
X152400000Y-83820000D03*
G04 #@! TD*
D11*
G04 #@! TO.P,D77,2*
G04 #@! TO.N,Net-(D101-Pad2)*
X154940000Y-88900000D03*
D10*
G04 #@! TO.P,D77,1*
G04 #@! TO.N,Net-(D72-Pad1)*
X152400000Y-88900000D03*
G04 #@! TD*
D11*
G04 #@! TO.P,D78,2*
G04 #@! TO.N,Net-(D102-Pad2)*
X154940000Y-93980000D03*
D10*
G04 #@! TO.P,D78,1*
G04 #@! TO.N,Net-(D72-Pad1)*
X152400000Y-93980000D03*
G04 #@! TD*
D11*
G04 #@! TO.P,D79,2*
G04 #@! TO.N,Net-(D103-Pad2)*
X154940000Y-99060000D03*
D10*
G04 #@! TO.P,D79,1*
G04 #@! TO.N,Net-(D72-Pad1)*
X152400000Y-99060000D03*
G04 #@! TD*
G04 #@! TO.P,D80,1*
G04 #@! TO.N,Net-(D80-Pad1)*
X157480000Y-63500000D03*
D11*
G04 #@! TO.P,D80,2*
G04 #@! TO.N,Net-(D0-Pad2)*
X160020000Y-63500000D03*
G04 #@! TD*
D10*
G04 #@! TO.P,D81,1*
G04 #@! TO.N,Net-(D80-Pad1)*
X157480000Y-68580000D03*
D11*
G04 #@! TO.P,D81,2*
G04 #@! TO.N,Net-(D1-Pad2)*
X160020000Y-68580000D03*
G04 #@! TD*
D10*
G04 #@! TO.P,D82,1*
G04 #@! TO.N,Net-(D80-Pad1)*
X157480000Y-73660000D03*
D11*
G04 #@! TO.P,D82,2*
G04 #@! TO.N,Net-(D10-Pad2)*
X160020000Y-73660000D03*
G04 #@! TD*
D10*
G04 #@! TO.P,D83,1*
G04 #@! TO.N,Net-(D80-Pad1)*
X157480000Y-78740000D03*
D11*
G04 #@! TO.P,D83,2*
G04 #@! TO.N,Net-(D107-Pad2)*
X160020000Y-78740000D03*
G04 #@! TD*
D10*
G04 #@! TO.P,D84,1*
G04 #@! TO.N,Net-(D80-Pad1)*
X157480000Y-83820000D03*
D11*
G04 #@! TO.P,D84,2*
G04 #@! TO.N,Net-(D100-Pad2)*
X160020000Y-83820000D03*
G04 #@! TD*
D10*
G04 #@! TO.P,D85,1*
G04 #@! TO.N,Net-(D80-Pad1)*
X157480000Y-88900000D03*
D11*
G04 #@! TO.P,D85,2*
G04 #@! TO.N,Net-(D101-Pad2)*
X160020000Y-88900000D03*
G04 #@! TD*
D10*
G04 #@! TO.P,D86,1*
G04 #@! TO.N,Net-(D80-Pad1)*
X157480000Y-93980000D03*
D11*
G04 #@! TO.P,D86,2*
G04 #@! TO.N,Net-(D102-Pad2)*
X160020000Y-93980000D03*
G04 #@! TD*
D10*
G04 #@! TO.P,D87,1*
G04 #@! TO.N,Net-(D80-Pad1)*
X157480000Y-99060000D03*
D11*
G04 #@! TO.P,D87,2*
G04 #@! TO.N,Net-(D103-Pad2)*
X160020000Y-99060000D03*
G04 #@! TD*
G04 #@! TO.P,D88,2*
G04 #@! TO.N,Net-(D0-Pad2)*
X165100000Y-63500000D03*
D10*
G04 #@! TO.P,D88,1*
G04 #@! TO.N,Net-(D88-Pad1)*
X162560000Y-63500000D03*
G04 #@! TD*
D11*
G04 #@! TO.P,D89,2*
G04 #@! TO.N,Net-(D1-Pad2)*
X165100000Y-68580000D03*
D10*
G04 #@! TO.P,D89,1*
G04 #@! TO.N,Net-(D88-Pad1)*
X162560000Y-68580000D03*
G04 #@! TD*
D11*
G04 #@! TO.P,D90,2*
G04 #@! TO.N,Net-(D10-Pad2)*
X165100000Y-73660000D03*
D10*
G04 #@! TO.P,D90,1*
G04 #@! TO.N,Net-(D88-Pad1)*
X162560000Y-73660000D03*
G04 #@! TD*
D11*
G04 #@! TO.P,D91,2*
G04 #@! TO.N,Net-(D107-Pad2)*
X165100000Y-78740000D03*
D10*
G04 #@! TO.P,D91,1*
G04 #@! TO.N,Net-(D88-Pad1)*
X162560000Y-78740000D03*
G04 #@! TD*
D11*
G04 #@! TO.P,D92,2*
G04 #@! TO.N,Net-(D100-Pad2)*
X165100000Y-83820000D03*
D10*
G04 #@! TO.P,D92,1*
G04 #@! TO.N,Net-(D88-Pad1)*
X162560000Y-83820000D03*
G04 #@! TD*
D11*
G04 #@! TO.P,D93,2*
G04 #@! TO.N,Net-(D101-Pad2)*
X165100000Y-88900000D03*
D10*
G04 #@! TO.P,D93,1*
G04 #@! TO.N,Net-(D88-Pad1)*
X162560000Y-88900000D03*
G04 #@! TD*
D11*
G04 #@! TO.P,D94,2*
G04 #@! TO.N,Net-(D102-Pad2)*
X165100000Y-93980000D03*
D10*
G04 #@! TO.P,D94,1*
G04 #@! TO.N,Net-(D88-Pad1)*
X162560000Y-93980000D03*
G04 #@! TD*
D11*
G04 #@! TO.P,D95,2*
G04 #@! TO.N,Net-(D103-Pad2)*
X165100000Y-99060000D03*
D10*
G04 #@! TO.P,D95,1*
G04 #@! TO.N,Net-(D88-Pad1)*
X162560000Y-99060000D03*
G04 #@! TD*
G04 #@! TO.P,D96,1*
G04 #@! TO.N,Net-(D100-Pad1)*
X167640000Y-63500000D03*
D11*
G04 #@! TO.P,D96,2*
G04 #@! TO.N,Net-(D0-Pad2)*
X170180000Y-63500000D03*
G04 #@! TD*
D10*
G04 #@! TO.P,D97,1*
G04 #@! TO.N,Net-(D100-Pad1)*
X167640000Y-68580000D03*
D11*
G04 #@! TO.P,D97,2*
G04 #@! TO.N,Net-(D1-Pad2)*
X170180000Y-68580000D03*
G04 #@! TD*
D10*
G04 #@! TO.P,D98,1*
G04 #@! TO.N,Net-(D100-Pad1)*
X167640000Y-73660000D03*
D11*
G04 #@! TO.P,D98,2*
G04 #@! TO.N,Net-(D10-Pad2)*
X170180000Y-73660000D03*
G04 #@! TD*
D10*
G04 #@! TO.P,D99,1*
G04 #@! TO.N,Net-(D100-Pad1)*
X167640000Y-78740000D03*
D11*
G04 #@! TO.P,D99,2*
G04 #@! TO.N,Net-(D107-Pad2)*
X170180000Y-78740000D03*
G04 #@! TD*
D10*
G04 #@! TO.P,D100,1*
G04 #@! TO.N,Net-(D100-Pad1)*
X167640000Y-83820000D03*
D11*
G04 #@! TO.P,D100,2*
G04 #@! TO.N,Net-(D100-Pad2)*
X170180000Y-83820000D03*
G04 #@! TD*
D10*
G04 #@! TO.P,D101,1*
G04 #@! TO.N,Net-(D100-Pad1)*
X167640000Y-88900000D03*
D11*
G04 #@! TO.P,D101,2*
G04 #@! TO.N,Net-(D101-Pad2)*
X170180000Y-88900000D03*
G04 #@! TD*
D10*
G04 #@! TO.P,D102,1*
G04 #@! TO.N,Net-(D100-Pad1)*
X167640000Y-93980000D03*
D11*
G04 #@! TO.P,D102,2*
G04 #@! TO.N,Net-(D102-Pad2)*
X170180000Y-93980000D03*
G04 #@! TD*
D10*
G04 #@! TO.P,D103,1*
G04 #@! TO.N,Net-(D100-Pad1)*
X167640000Y-99060000D03*
D11*
G04 #@! TO.P,D103,2*
G04 #@! TO.N,Net-(D103-Pad2)*
X170180000Y-99060000D03*
G04 #@! TD*
G04 #@! TO.P,D104,2*
G04 #@! TO.N,Net-(D0-Pad2)*
X175260000Y-63500000D03*
D10*
G04 #@! TO.P,D104,1*
G04 #@! TO.N,Net-(D104-Pad1)*
X172720000Y-63500000D03*
G04 #@! TD*
D11*
G04 #@! TO.P,D105,2*
G04 #@! TO.N,Net-(D1-Pad2)*
X175260000Y-68580000D03*
D10*
G04 #@! TO.P,D105,1*
G04 #@! TO.N,Net-(D104-Pad1)*
X172720000Y-68580000D03*
G04 #@! TD*
D11*
G04 #@! TO.P,D106,2*
G04 #@! TO.N,Net-(D10-Pad2)*
X175260000Y-73660000D03*
D10*
G04 #@! TO.P,D106,1*
G04 #@! TO.N,Net-(D104-Pad1)*
X172720000Y-73660000D03*
G04 #@! TD*
D11*
G04 #@! TO.P,D107,2*
G04 #@! TO.N,Net-(D107-Pad2)*
X175260000Y-78740000D03*
D10*
G04 #@! TO.P,D107,1*
G04 #@! TO.N,Net-(D104-Pad1)*
X172720000Y-78740000D03*
G04 #@! TD*
D11*
G04 #@! TO.P,D108,2*
G04 #@! TO.N,Net-(D100-Pad2)*
X175260000Y-83820000D03*
D10*
G04 #@! TO.P,D108,1*
G04 #@! TO.N,Net-(D104-Pad1)*
X172720000Y-83820000D03*
G04 #@! TD*
D11*
G04 #@! TO.P,D109,2*
G04 #@! TO.N,Net-(D101-Pad2)*
X175260000Y-88900000D03*
D10*
G04 #@! TO.P,D109,1*
G04 #@! TO.N,Net-(D104-Pad1)*
X172720000Y-88900000D03*
G04 #@! TD*
D11*
G04 #@! TO.P,D110,2*
G04 #@! TO.N,Net-(D102-Pad2)*
X175260000Y-93980000D03*
D10*
G04 #@! TO.P,D110,1*
G04 #@! TO.N,Net-(D104-Pad1)*
X172720000Y-93980000D03*
G04 #@! TD*
D11*
G04 #@! TO.P,D111,2*
G04 #@! TO.N,Net-(D103-Pad2)*
X175260000Y-99060000D03*
D10*
G04 #@! TO.P,D111,1*
G04 #@! TO.N,Net-(D104-Pad1)*
X172720000Y-99060000D03*
G04 #@! TD*
G04 #@! TO.P,D112,1*
G04 #@! TO.N,Net-(D112-Pad1)*
X177800000Y-63500000D03*
D11*
G04 #@! TO.P,D112,2*
G04 #@! TO.N,Net-(D0-Pad2)*
X180340000Y-63500000D03*
G04 #@! TD*
D10*
G04 #@! TO.P,D113,1*
G04 #@! TO.N,Net-(D112-Pad1)*
X177800000Y-68580000D03*
D11*
G04 #@! TO.P,D113,2*
G04 #@! TO.N,Net-(D1-Pad2)*
X180340000Y-68580000D03*
G04 #@! TD*
D10*
G04 #@! TO.P,D114,1*
G04 #@! TO.N,Net-(D112-Pad1)*
X177800000Y-73660000D03*
D11*
G04 #@! TO.P,D114,2*
G04 #@! TO.N,Net-(D10-Pad2)*
X180340000Y-73660000D03*
G04 #@! TD*
D10*
G04 #@! TO.P,D115,1*
G04 #@! TO.N,Net-(D112-Pad1)*
X177800000Y-78740000D03*
D11*
G04 #@! TO.P,D115,2*
G04 #@! TO.N,Net-(D107-Pad2)*
X180340000Y-78740000D03*
G04 #@! TD*
D10*
G04 #@! TO.P,D116,1*
G04 #@! TO.N,Net-(D112-Pad1)*
X177800000Y-83820000D03*
D11*
G04 #@! TO.P,D116,2*
G04 #@! TO.N,Net-(D100-Pad2)*
X180340000Y-83820000D03*
G04 #@! TD*
D10*
G04 #@! TO.P,D117,1*
G04 #@! TO.N,Net-(D112-Pad1)*
X177800000Y-88900000D03*
D11*
G04 #@! TO.P,D117,2*
G04 #@! TO.N,Net-(D101-Pad2)*
X180340000Y-88900000D03*
G04 #@! TD*
D10*
G04 #@! TO.P,D118,1*
G04 #@! TO.N,Net-(D112-Pad1)*
X177800000Y-93980000D03*
D11*
G04 #@! TO.P,D118,2*
G04 #@! TO.N,Net-(D102-Pad2)*
X180340000Y-93980000D03*
G04 #@! TD*
D10*
G04 #@! TO.P,D119,1*
G04 #@! TO.N,Net-(D112-Pad1)*
X177800000Y-99060000D03*
D11*
G04 #@! TO.P,D119,2*
G04 #@! TO.N,Net-(D103-Pad2)*
X180340000Y-99060000D03*
G04 #@! TD*
G04 #@! TO.P,D120,2*
G04 #@! TO.N,Net-(D0-Pad2)*
X185420000Y-63500000D03*
D10*
G04 #@! TO.P,D120,1*
G04 #@! TO.N,Net-(D120-Pad1)*
X182880000Y-63500000D03*
G04 #@! TD*
D11*
G04 #@! TO.P,D121,2*
G04 #@! TO.N,Net-(D1-Pad2)*
X185420000Y-68580000D03*
D10*
G04 #@! TO.P,D121,1*
G04 #@! TO.N,Net-(D120-Pad1)*
X182880000Y-68580000D03*
G04 #@! TD*
D11*
G04 #@! TO.P,D122,2*
G04 #@! TO.N,Net-(D10-Pad2)*
X185420000Y-73660000D03*
D10*
G04 #@! TO.P,D122,1*
G04 #@! TO.N,Net-(D120-Pad1)*
X182880000Y-73660000D03*
G04 #@! TD*
D11*
G04 #@! TO.P,D123,2*
G04 #@! TO.N,Net-(D107-Pad2)*
X185420000Y-78740000D03*
D10*
G04 #@! TO.P,D123,1*
G04 #@! TO.N,Net-(D120-Pad1)*
X182880000Y-78740000D03*
G04 #@! TD*
D11*
G04 #@! TO.P,D124,2*
G04 #@! TO.N,Net-(D100-Pad2)*
X185420000Y-83820000D03*
D10*
G04 #@! TO.P,D124,1*
G04 #@! TO.N,Net-(D120-Pad1)*
X182880000Y-83820000D03*
G04 #@! TD*
D11*
G04 #@! TO.P,D125,2*
G04 #@! TO.N,Net-(D101-Pad2)*
X185420000Y-88900000D03*
D10*
G04 #@! TO.P,D125,1*
G04 #@! TO.N,Net-(D120-Pad1)*
X182880000Y-88900000D03*
G04 #@! TD*
D11*
G04 #@! TO.P,D126,2*
G04 #@! TO.N,Net-(D102-Pad2)*
X185420000Y-93980000D03*
D10*
G04 #@! TO.P,D126,1*
G04 #@! TO.N,Net-(D120-Pad1)*
X182880000Y-93980000D03*
G04 #@! TD*
D11*
G04 #@! TO.P,D127,2*
G04 #@! TO.N,Net-(D103-Pad2)*
X185420000Y-99060000D03*
D10*
G04 #@! TO.P,D127,1*
G04 #@! TO.N,Net-(D120-Pad1)*
X182880000Y-99060000D03*
G04 #@! TD*
D12*
G04 #@! TO.P,J1,1*
G04 #@! TO.N,Net-(D0-Pad2)*
X106680000Y-107950000D03*
D13*
G04 #@! TO.P,J1,2*
G04 #@! TO.N,Net-(D1-Pad2)*
X109220000Y-107950000D03*
G04 #@! TO.P,J1,3*
G04 #@! TO.N,Net-(D10-Pad2)*
X111760000Y-107950000D03*
G04 #@! TO.P,J1,4*
G04 #@! TO.N,Net-(D107-Pad2)*
X114300000Y-107950000D03*
G04 #@! TO.P,J1,5*
G04 #@! TO.N,Net-(D100-Pad2)*
X116840000Y-107950000D03*
G04 #@! TO.P,J1,6*
G04 #@! TO.N,Net-(D101-Pad2)*
X119380000Y-107950000D03*
G04 #@! TO.P,J1,7*
G04 #@! TO.N,Net-(D102-Pad2)*
X121920000Y-107950000D03*
G04 #@! TO.P,J1,8*
G04 #@! TO.N,Net-(D103-Pad2)*
X124460000Y-107950000D03*
G04 #@! TO.P,J1,9*
G04 #@! TO.N,Net-(D0-Pad1)*
X127000000Y-107950000D03*
G04 #@! TO.P,J1,10*
G04 #@! TO.N,Net-(D10-Pad1)*
X129540000Y-107950000D03*
G04 #@! TO.P,J1,11*
G04 #@! TO.N,Net-(D16-Pad1)*
X132080000Y-107950000D03*
G04 #@! TO.P,J1,12*
G04 #@! TO.N,Net-(D24-Pad1)*
X134620000Y-107950000D03*
G04 #@! TO.P,J1,13*
G04 #@! TO.N,Net-(D32-Pad1)*
X137160000Y-107950000D03*
G04 #@! TO.P,J1,14*
G04 #@! TO.N,Net-(D40-Pad1)*
X139700000Y-107950000D03*
G04 #@! TO.P,J1,15*
G04 #@! TO.N,Net-(D48-Pad1)*
X142240000Y-107950000D03*
G04 #@! TO.P,J1,16*
G04 #@! TO.N,Net-(D56-Pad1)*
X144780000Y-107950000D03*
G04 #@! TO.P,J1,17*
G04 #@! TO.N,Net-(D64-Pad1)*
X147320000Y-107950000D03*
G04 #@! TO.P,J1,18*
G04 #@! TO.N,Net-(D72-Pad1)*
X149860000Y-107950000D03*
G04 #@! TO.P,J1,19*
G04 #@! TO.N,Net-(D80-Pad1)*
X152400000Y-107950000D03*
G04 #@! TO.P,J1,20*
G04 #@! TO.N,Net-(D88-Pad1)*
X154940000Y-107950000D03*
G04 #@! TO.P,J1,21*
G04 #@! TO.N,Net-(D100-Pad1)*
X157480000Y-107950000D03*
G04 #@! TO.P,J1,22*
G04 #@! TO.N,Net-(D104-Pad1)*
X160020000Y-107950000D03*
G04 #@! TO.P,J1,23*
G04 #@! TO.N,Net-(D112-Pad1)*
X162560000Y-107950000D03*
G04 #@! TO.P,J1,24*
G04 #@! TO.N,Net-(D120-Pad1)*
X165100000Y-107950000D03*
G04 #@! TD*
D14*
G04 #@! TO.N,Net-(D0-Pad2)*
X107950000Y-101600000D03*
G04 #@! TO.N,Net-(D1-Pad2)*
X110490000Y-101600000D03*
G04 #@! TO.N,Net-(D10-Pad2)*
X113030000Y-101600000D03*
G04 #@! TO.N,Net-(D107-Pad2)*
X115570000Y-101600000D03*
G04 #@! TO.N,Net-(D100-Pad2)*
X118110000Y-101600000D03*
G04 #@! TO.N,Net-(D101-Pad2)*
X120650000Y-101600000D03*
G04 #@! TO.N,Net-(D102-Pad2)*
X123190000Y-101600000D03*
G04 #@! TD*
D15*
G04 #@! TO.N,Net-(D0-Pad2)*
X106680000Y-102870000D02*
X106680000Y-107950000D01*
X107950000Y-101600000D02*
X106680000Y-102870000D01*
X118154999Y-62274999D02*
X118480001Y-62600001D01*
X118480001Y-62600001D02*
X119380000Y-63500000D01*
X115525001Y-62274999D02*
X118154999Y-62274999D01*
X114300000Y-63500000D02*
X115525001Y-62274999D01*
X123560001Y-62600001D02*
X124460000Y-63500000D01*
X123234999Y-62274999D02*
X123560001Y-62600001D01*
X120605001Y-62274999D02*
X123234999Y-62274999D01*
X119380000Y-63500000D02*
X120605001Y-62274999D01*
X138800001Y-62600001D02*
X139700000Y-63500000D01*
X138474999Y-62274999D02*
X138800001Y-62600001D01*
X135845001Y-62274999D02*
X138474999Y-62274999D01*
X134620000Y-63500000D02*
X135845001Y-62274999D01*
X113400001Y-64399999D02*
X114300000Y-63500000D01*
X113074999Y-64725001D02*
X113400001Y-64399999D01*
X110445001Y-64725001D02*
X113074999Y-64725001D01*
X109220000Y-63500000D02*
X110445001Y-64725001D01*
X128640001Y-64399999D02*
X129540000Y-63500000D01*
X128314999Y-64725001D02*
X128640001Y-64399999D01*
X125685001Y-64725001D02*
X128314999Y-64725001D01*
X124460000Y-63500000D02*
X125685001Y-64725001D01*
X133720001Y-64399999D02*
X134620000Y-63500000D01*
X133394999Y-64725001D02*
X133720001Y-64399999D01*
X130765001Y-64725001D02*
X133394999Y-64725001D01*
X129540000Y-63500000D02*
X130765001Y-64725001D01*
X143880001Y-64399999D02*
X144780000Y-63500000D01*
X143554999Y-64725001D02*
X143880001Y-64399999D01*
X140925001Y-64725001D02*
X143554999Y-64725001D01*
X139700000Y-63500000D02*
X140925001Y-64725001D01*
X148634999Y-64725001D02*
X148960001Y-64399999D01*
X146005001Y-64725001D02*
X148634999Y-64725001D01*
X148960001Y-64399999D02*
X149860000Y-63500000D01*
X144780000Y-63500000D02*
X146005001Y-64725001D01*
X154040001Y-64399999D02*
X154940000Y-63500000D01*
X153714999Y-64725001D02*
X154040001Y-64399999D01*
X151085001Y-64725001D02*
X153714999Y-64725001D01*
X149860000Y-63500000D02*
X151085001Y-64725001D01*
X159120001Y-62600001D02*
X160020000Y-63500000D01*
X158794999Y-62274999D02*
X159120001Y-62600001D01*
X156165001Y-62274999D02*
X158794999Y-62274999D01*
X154940000Y-63500000D02*
X156165001Y-62274999D01*
X164200001Y-62600001D02*
X165100000Y-63500000D01*
X161245001Y-62274999D02*
X163874999Y-62274999D01*
X163874999Y-62274999D02*
X164200001Y-62600001D01*
X160020000Y-63500000D02*
X161245001Y-62274999D01*
X169280001Y-64399999D02*
X170180000Y-63500000D01*
X168954999Y-64725001D02*
X169280001Y-64399999D01*
X166325001Y-64725001D02*
X168954999Y-64725001D01*
X165100000Y-63500000D02*
X166325001Y-64725001D01*
X174360001Y-64399999D02*
X175260000Y-63500000D01*
X174034999Y-64725001D02*
X174360001Y-64399999D01*
X171405001Y-64725001D02*
X174034999Y-64725001D01*
X170180000Y-63500000D02*
X171405001Y-64725001D01*
X179440001Y-64399999D02*
X180340000Y-63500000D01*
X179114999Y-64725001D02*
X179440001Y-64399999D01*
X176485001Y-64725001D02*
X179114999Y-64725001D01*
X175260000Y-63500000D02*
X176485001Y-64725001D01*
X184520001Y-64399999D02*
X185420000Y-63500000D01*
X181565001Y-64725001D02*
X184194999Y-64725001D01*
X184194999Y-64725001D02*
X184520001Y-64399999D01*
X180340000Y-63500000D02*
X181565001Y-64725001D01*
G04 #@! TO.N,Net-(D1-Pad2)*
X109220000Y-102870000D02*
X109220000Y-107950000D01*
X110490000Y-101600000D02*
X109220000Y-102870000D01*
X113400001Y-67680001D02*
X114300000Y-68580000D01*
X113074999Y-67354999D02*
X113400001Y-67680001D01*
X110445001Y-67354999D02*
X113074999Y-67354999D01*
X109220000Y-68580000D02*
X110445001Y-67354999D01*
X123234999Y-67354999D02*
X123560001Y-67680001D01*
X123560001Y-67680001D02*
X124460000Y-68580000D01*
X120605001Y-67354999D02*
X123234999Y-67354999D01*
X119380000Y-68580000D02*
X120605001Y-67354999D01*
X128640001Y-67680001D02*
X129540000Y-68580000D01*
X128314999Y-67354999D02*
X128640001Y-67680001D01*
X125685001Y-67354999D02*
X128314999Y-67354999D01*
X124460000Y-68580000D02*
X125685001Y-67354999D01*
X184520001Y-69479999D02*
X185420000Y-68580000D01*
X184194999Y-69805001D02*
X184520001Y-69479999D01*
X181565001Y-69805001D02*
X184194999Y-69805001D01*
X180340000Y-68580000D02*
X181565001Y-69805001D01*
X118480001Y-69479999D02*
X119380000Y-68580000D01*
X118154999Y-69805001D02*
X118480001Y-69479999D01*
X115525001Y-69805001D02*
X118154999Y-69805001D01*
X114300000Y-68580000D02*
X115525001Y-69805001D01*
X133720001Y-69479999D02*
X134620000Y-68580000D01*
X133350000Y-69850000D02*
X133720001Y-69479999D01*
X130810000Y-69850000D02*
X133350000Y-69850000D01*
X129540000Y-68580000D02*
X130810000Y-69850000D01*
X138474999Y-67354999D02*
X138800001Y-67680001D01*
X138800001Y-67680001D02*
X139700000Y-68580000D01*
X135845001Y-67354999D02*
X138474999Y-67354999D01*
X134620000Y-68580000D02*
X135845001Y-67354999D01*
X143880001Y-67680001D02*
X144780000Y-68580000D01*
X143554999Y-67354999D02*
X143880001Y-67680001D01*
X140925001Y-67354999D02*
X143554999Y-67354999D01*
X139700000Y-68580000D02*
X140925001Y-67354999D01*
X148960001Y-67680001D02*
X149860000Y-68580000D01*
X148634999Y-67354999D02*
X148960001Y-67680001D01*
X146005001Y-67354999D02*
X148634999Y-67354999D01*
X144780000Y-68580000D02*
X146005001Y-67354999D01*
X154040001Y-69479999D02*
X154940000Y-68580000D01*
X153714999Y-69805001D02*
X154040001Y-69479999D01*
X151085001Y-69805001D02*
X153714999Y-69805001D01*
X149860000Y-68580000D02*
X151085001Y-69805001D01*
X159120001Y-69479999D02*
X160020000Y-68580000D01*
X158794999Y-69805001D02*
X159120001Y-69479999D01*
X156165001Y-69805001D02*
X158794999Y-69805001D01*
X154940000Y-68580000D02*
X156165001Y-69805001D01*
X163874999Y-67354999D02*
X164200001Y-67680001D01*
X164200001Y-67680001D02*
X165100000Y-68580000D01*
X161245001Y-67354999D02*
X163874999Y-67354999D01*
X160020000Y-68580000D02*
X161245001Y-67354999D01*
X169280001Y-67680001D02*
X170180000Y-68580000D01*
X168954999Y-67354999D02*
X169280001Y-67680001D01*
X166325001Y-67354999D02*
X168954999Y-67354999D01*
X165100000Y-68580000D02*
X166325001Y-67354999D01*
X174360001Y-69479999D02*
X175260000Y-68580000D01*
X174034999Y-69805001D02*
X174360001Y-69479999D01*
X171405001Y-69805001D02*
X174034999Y-69805001D01*
X170180000Y-68580000D02*
X171405001Y-69805001D01*
X179440001Y-69479999D02*
X180340000Y-68580000D01*
X179114999Y-69805001D02*
X179440001Y-69479999D01*
X176485001Y-69805001D02*
X179114999Y-69805001D01*
X175260000Y-68580000D02*
X176485001Y-69805001D01*
G04 #@! TO.N,Net-(D10-Pad2)*
X113400001Y-72760001D02*
X114300000Y-73660000D01*
X110445001Y-72434999D02*
X113074999Y-72434999D01*
X113074999Y-72434999D02*
X113400001Y-72760001D01*
X109220000Y-73660000D02*
X110445001Y-72434999D01*
X118480001Y-72760001D02*
X119380000Y-73660000D01*
X118154999Y-72434999D02*
X118480001Y-72760001D01*
X115525001Y-72434999D02*
X118154999Y-72434999D01*
X114300000Y-73660000D02*
X115525001Y-72434999D01*
X128314999Y-72434999D02*
X128640001Y-72760001D01*
X125685001Y-72434999D02*
X128314999Y-72434999D01*
X128640001Y-72760001D02*
X129540000Y-73660000D01*
X124460000Y-73660000D02*
X125685001Y-72434999D01*
X111760000Y-102870000D02*
X111760000Y-107950000D01*
X113030000Y-101600000D02*
X111760000Y-102870000D01*
X123560001Y-74559999D02*
X124460000Y-73660000D01*
X120605001Y-74885001D02*
X123234999Y-74885001D01*
X123234999Y-74885001D02*
X123560001Y-74559999D01*
X119380000Y-73660000D02*
X120605001Y-74885001D01*
X133720001Y-72760001D02*
X134620000Y-73660000D01*
X133394999Y-72434999D02*
X133720001Y-72760001D01*
X130765001Y-72434999D02*
X133394999Y-72434999D01*
X129540000Y-73660000D02*
X130765001Y-72434999D01*
X138474999Y-74885001D02*
X138800001Y-74559999D01*
X138800001Y-74559999D02*
X139700000Y-73660000D01*
X135845001Y-74885001D02*
X138474999Y-74885001D01*
X134620000Y-73660000D02*
X135845001Y-74885001D01*
X143554999Y-74885001D02*
X143880001Y-74559999D01*
X140925001Y-74885001D02*
X143554999Y-74885001D01*
X143880001Y-74559999D02*
X144780000Y-73660000D01*
X139700000Y-73660000D02*
X140925001Y-74885001D01*
X148634999Y-72434999D02*
X148960001Y-72760001D01*
X146005001Y-72434999D02*
X148634999Y-72434999D01*
X148960001Y-72760001D02*
X149860000Y-73660000D01*
X144780000Y-73660000D02*
X146005001Y-72434999D01*
X153714999Y-74885001D02*
X154040001Y-74559999D01*
X154040001Y-74559999D02*
X154940000Y-73660000D01*
X151085001Y-74885001D02*
X153714999Y-74885001D01*
X149860000Y-73660000D02*
X151085001Y-74885001D01*
X158794999Y-72434999D02*
X159120001Y-72760001D01*
X156165001Y-72434999D02*
X158794999Y-72434999D01*
X159120001Y-72760001D02*
X160020000Y-73660000D01*
X154940000Y-73660000D02*
X156165001Y-72434999D01*
X164200001Y-74559999D02*
X165100000Y-73660000D01*
X163874999Y-74885001D02*
X164200001Y-74559999D01*
X161245001Y-74885001D02*
X163874999Y-74885001D01*
X160020000Y-73660000D02*
X161245001Y-74885001D01*
X168954999Y-74885001D02*
X169280001Y-74559999D01*
X166325001Y-74885001D02*
X168954999Y-74885001D01*
X169280001Y-74559999D02*
X170180000Y-73660000D01*
X165100000Y-73660000D02*
X166325001Y-74885001D01*
X174034999Y-72434999D02*
X174360001Y-72760001D01*
X171405001Y-72434999D02*
X174034999Y-72434999D01*
X174360001Y-72760001D02*
X175260000Y-73660000D01*
X170180000Y-73660000D02*
X171405001Y-72434999D01*
X179440001Y-74559999D02*
X180340000Y-73660000D01*
X179114999Y-74885001D02*
X179440001Y-74559999D01*
X176485001Y-74885001D02*
X179114999Y-74885001D01*
X175260000Y-73660000D02*
X176485001Y-74885001D01*
X184520001Y-74559999D02*
X185420000Y-73660000D01*
X181565001Y-74885001D02*
X184194999Y-74885001D01*
X184194999Y-74885001D02*
X184520001Y-74559999D01*
X180340000Y-73660000D02*
X181565001Y-74885001D01*
G04 #@! TO.N,Net-(D107-Pad2)*
X133720001Y-77840001D02*
X134620000Y-78740000D01*
X133394999Y-77514999D02*
X133720001Y-77840001D01*
X130765001Y-77514999D02*
X133394999Y-77514999D01*
X129540000Y-78740000D02*
X130765001Y-77514999D01*
X114300000Y-102870000D02*
X114300000Y-107950000D01*
X115570000Y-101600000D02*
X114300000Y-102870000D01*
X113400001Y-79639999D02*
X114300000Y-78740000D01*
X113074999Y-79965001D02*
X113400001Y-79639999D01*
X110445001Y-79965001D02*
X113074999Y-79965001D01*
X109220000Y-78740000D02*
X110445001Y-79965001D01*
X118480001Y-79639999D02*
X119380000Y-78740000D01*
X118154999Y-79965001D02*
X118480001Y-79639999D01*
X115525001Y-79965001D02*
X118154999Y-79965001D01*
X114300000Y-78740000D02*
X115525001Y-79965001D01*
X123560001Y-79639999D02*
X124460000Y-78740000D01*
X123234999Y-79965001D02*
X123560001Y-79639999D01*
X120605001Y-79965001D02*
X123234999Y-79965001D01*
X119380000Y-78740000D02*
X120605001Y-79965001D01*
X128314999Y-79965001D02*
X128640001Y-79639999D01*
X128640001Y-79639999D02*
X129540000Y-78740000D01*
X125685001Y-79965001D02*
X128314999Y-79965001D01*
X124460000Y-78740000D02*
X125685001Y-79965001D01*
X138800001Y-77840001D02*
X139700000Y-78740000D01*
X138474999Y-77514999D02*
X138800001Y-77840001D01*
X135845001Y-77514999D02*
X138474999Y-77514999D01*
X134620000Y-78740000D02*
X135845001Y-77514999D01*
X143880001Y-77840001D02*
X144780000Y-78740000D01*
X143554999Y-77514999D02*
X143880001Y-77840001D01*
X140925001Y-77514999D02*
X143554999Y-77514999D01*
X139700000Y-78740000D02*
X140925001Y-77514999D01*
X146005001Y-79965001D02*
X148634999Y-79965001D01*
X148960001Y-79639999D02*
X149860000Y-78740000D01*
X148634999Y-79965001D02*
X148960001Y-79639999D01*
X144780000Y-78740000D02*
X146005001Y-79965001D01*
X154040001Y-77840001D02*
X154940000Y-78740000D01*
X153714999Y-77514999D02*
X154040001Y-77840001D01*
X151085001Y-77514999D02*
X153714999Y-77514999D01*
X149860000Y-78740000D02*
X151085001Y-77514999D01*
X159120001Y-79639999D02*
X160020000Y-78740000D01*
X158794999Y-79965001D02*
X159120001Y-79639999D01*
X156165001Y-79965001D02*
X158794999Y-79965001D01*
X154940000Y-78740000D02*
X156165001Y-79965001D01*
X164200001Y-79639999D02*
X165100000Y-78740000D01*
X163874999Y-79965001D02*
X164200001Y-79639999D01*
X161245001Y-79965001D02*
X163874999Y-79965001D01*
X160020000Y-78740000D02*
X161245001Y-79965001D01*
X169280001Y-79639999D02*
X170180000Y-78740000D01*
X166325001Y-79965001D02*
X168954999Y-79965001D01*
X168954999Y-79965001D02*
X169280001Y-79639999D01*
X165100000Y-78740000D02*
X166325001Y-79965001D01*
X174034999Y-77514999D02*
X174360001Y-77840001D01*
X174360001Y-77840001D02*
X175260000Y-78740000D01*
X171405001Y-77514999D02*
X174034999Y-77514999D01*
X170180000Y-78740000D02*
X171405001Y-77514999D01*
X179440001Y-77840001D02*
X180340000Y-78740000D01*
X179114999Y-77514999D02*
X179440001Y-77840001D01*
X176485001Y-77514999D02*
X179114999Y-77514999D01*
X175260000Y-78740000D02*
X176485001Y-77514999D01*
X184520001Y-79639999D02*
X185420000Y-78740000D01*
X184194999Y-79965001D02*
X184520001Y-79639999D01*
X181565001Y-79965001D02*
X184194999Y-79965001D01*
X180340000Y-78740000D02*
X181565001Y-79965001D01*
G04 #@! TO.N,Net-(D100-Pad2)*
X110445001Y-82594999D02*
X113074999Y-82594999D01*
X113400001Y-82920001D02*
X114300000Y-83820000D01*
X113074999Y-82594999D02*
X113400001Y-82920001D01*
X109220000Y-83820000D02*
X110445001Y-82594999D01*
X116840000Y-102870000D02*
X116840000Y-107950000D01*
X118110000Y-101600000D02*
X116840000Y-102870000D01*
X118480001Y-84719999D02*
X119380000Y-83820000D01*
X118154999Y-85045001D02*
X118480001Y-84719999D01*
X115525001Y-85045001D02*
X118154999Y-85045001D01*
X114300000Y-83820000D02*
X115525001Y-85045001D01*
X123560001Y-84719999D02*
X124460000Y-83820000D01*
X123234999Y-85045001D02*
X123560001Y-84719999D01*
X120605001Y-85045001D02*
X123234999Y-85045001D01*
X119380000Y-83820000D02*
X120605001Y-85045001D01*
X128640001Y-84719999D02*
X129540000Y-83820000D01*
X128314999Y-85045001D02*
X128640001Y-84719999D01*
X125685001Y-85045001D02*
X128314999Y-85045001D01*
X124460000Y-83820000D02*
X125685001Y-85045001D01*
X133394999Y-85045001D02*
X133720001Y-84719999D01*
X133720001Y-84719999D02*
X134620000Y-83820000D01*
X130765001Y-85045001D02*
X133394999Y-85045001D01*
X129540000Y-83820000D02*
X130765001Y-85045001D01*
X138474999Y-82594999D02*
X138800001Y-82920001D01*
X138800001Y-82920001D02*
X139700000Y-83820000D01*
X135845001Y-82594999D02*
X138474999Y-82594999D01*
X134620000Y-83820000D02*
X135845001Y-82594999D01*
X143880001Y-82920001D02*
X144780000Y-83820000D01*
X140925001Y-82594999D02*
X143554999Y-82594999D01*
X143554999Y-82594999D02*
X143880001Y-82920001D01*
X139700000Y-83820000D02*
X140925001Y-82594999D01*
X148960001Y-84719999D02*
X149860000Y-83820000D01*
X146005001Y-85045001D02*
X148634999Y-85045001D01*
X148634999Y-85045001D02*
X148960001Y-84719999D01*
X144780000Y-83820000D02*
X146005001Y-85045001D01*
X154040001Y-84719999D02*
X154940000Y-83820000D01*
X153714999Y-85045001D02*
X154040001Y-84719999D01*
X151085001Y-85045001D02*
X153714999Y-85045001D01*
X149860000Y-83820000D02*
X151085001Y-85045001D01*
X159120001Y-82920001D02*
X160020000Y-83820000D01*
X158794999Y-82594999D02*
X159120001Y-82920001D01*
X156165001Y-82594999D02*
X158794999Y-82594999D01*
X154940000Y-83820000D02*
X156165001Y-82594999D01*
X164200001Y-84719999D02*
X165100000Y-83820000D01*
X161245001Y-85045001D02*
X163874999Y-85045001D01*
X163874999Y-85045001D02*
X164200001Y-84719999D01*
X160020000Y-83820000D02*
X161245001Y-85045001D01*
X169280001Y-82920001D02*
X170180000Y-83820000D01*
X168954999Y-82594999D02*
X169280001Y-82920001D01*
X166325001Y-82594999D02*
X168954999Y-82594999D01*
X165100000Y-83820000D02*
X166325001Y-82594999D01*
X174034999Y-85045001D02*
X174360001Y-84719999D01*
X171405001Y-85045001D02*
X174034999Y-85045001D01*
X174360001Y-84719999D02*
X175260000Y-83820000D01*
X170180000Y-83820000D02*
X171405001Y-85045001D01*
X179440001Y-84719999D02*
X180340000Y-83820000D01*
X176485001Y-85045001D02*
X179114999Y-85045001D01*
X179114999Y-85045001D02*
X179440001Y-84719999D01*
X175260000Y-83820000D02*
X176485001Y-85045001D01*
X184520001Y-82920001D02*
X185420000Y-83820000D01*
X184194999Y-82594999D02*
X184520001Y-82920001D01*
X181565001Y-82594999D02*
X184194999Y-82594999D01*
X180340000Y-83820000D02*
X181565001Y-82594999D01*
G04 #@! TO.N,Net-(D101-Pad2)*
X119380000Y-102870000D02*
X119380000Y-107950000D01*
X120650000Y-101600000D02*
X119380000Y-102870000D01*
X113400001Y-89799999D02*
X114300000Y-88900000D01*
X110445001Y-90125001D02*
X113074999Y-90125001D01*
X113074999Y-90125001D02*
X113400001Y-89799999D01*
X109220000Y-88900000D02*
X110445001Y-90125001D01*
X118480001Y-89799999D02*
X119380000Y-88900000D01*
X118154999Y-90125001D02*
X118480001Y-89799999D01*
X115525001Y-90125001D02*
X118154999Y-90125001D01*
X114300000Y-88900000D02*
X115525001Y-90125001D01*
X123560001Y-89799999D02*
X124460000Y-88900000D01*
X123234999Y-90125001D02*
X123560001Y-89799999D01*
X120605001Y-90125001D02*
X123234999Y-90125001D01*
X119380000Y-88900000D02*
X120605001Y-90125001D01*
X128640001Y-89799999D02*
X129540000Y-88900000D01*
X128314999Y-90125001D02*
X128640001Y-89799999D01*
X125685001Y-90125001D02*
X128314999Y-90125001D01*
X124460000Y-88900000D02*
X125685001Y-90125001D01*
X133394999Y-90125001D02*
X133720001Y-89799999D01*
X133720001Y-89799999D02*
X134620000Y-88900000D01*
X130765001Y-90125001D02*
X133394999Y-90125001D01*
X129540000Y-88900000D02*
X130765001Y-90125001D01*
X138800001Y-89799999D02*
X139700000Y-88900000D01*
X138474999Y-90125001D02*
X138800001Y-89799999D01*
X135845001Y-90125001D02*
X138474999Y-90125001D01*
X134620000Y-88900000D02*
X135845001Y-90125001D01*
X143880001Y-88000001D02*
X144780000Y-88900000D01*
X143554999Y-87674999D02*
X143880001Y-88000001D01*
X140925001Y-87674999D02*
X143554999Y-87674999D01*
X139700000Y-88900000D02*
X140925001Y-87674999D01*
X148634999Y-87674999D02*
X148960001Y-88000001D01*
X146005001Y-87674999D02*
X148634999Y-87674999D01*
X148960001Y-88000001D02*
X149860000Y-88900000D01*
X144780000Y-88900000D02*
X146005001Y-87674999D01*
X153714999Y-90125001D02*
X154040001Y-89799999D01*
X154040001Y-89799999D02*
X154940000Y-88900000D01*
X151085001Y-90125001D02*
X153714999Y-90125001D01*
X149860000Y-88900000D02*
X151085001Y-90125001D01*
X158794999Y-87674999D02*
X159120001Y-88000001D01*
X159120001Y-88000001D02*
X160020000Y-88900000D01*
X156165001Y-87674999D02*
X158794999Y-87674999D01*
X154940000Y-88900000D02*
X156165001Y-87674999D01*
X163874999Y-87674999D02*
X164200001Y-88000001D01*
X164200001Y-88000001D02*
X165100000Y-88900000D01*
X161245001Y-87674999D02*
X163874999Y-87674999D01*
X160020000Y-88900000D02*
X161245001Y-87674999D01*
X169280001Y-89799999D02*
X170180000Y-88900000D01*
X168954999Y-90125001D02*
X169280001Y-89799999D01*
X166325001Y-90125001D02*
X168954999Y-90125001D01*
X165100000Y-88900000D02*
X166325001Y-90125001D01*
X174360001Y-89799999D02*
X175260000Y-88900000D01*
X173990000Y-90170000D02*
X174360001Y-89799999D01*
X171450000Y-90170000D02*
X173990000Y-90170000D01*
X170180000Y-88900000D02*
X171450000Y-90170000D01*
X179114999Y-90125001D02*
X179440001Y-89799999D01*
X176485001Y-90125001D02*
X179114999Y-90125001D01*
X179440001Y-89799999D02*
X180340000Y-88900000D01*
X175260000Y-88900000D02*
X176485001Y-90125001D01*
X184194999Y-87674999D02*
X184520001Y-88000001D01*
X184520001Y-88000001D02*
X185420000Y-88900000D01*
X181565001Y-87674999D02*
X184194999Y-87674999D01*
X180340000Y-88900000D02*
X181565001Y-87674999D01*
G04 #@! TO.N,Net-(D102-Pad2)*
X113074999Y-92754999D02*
X113400001Y-93080001D01*
X110445001Y-92754999D02*
X113074999Y-92754999D01*
X113400001Y-93080001D02*
X114300000Y-93980000D01*
X109220000Y-93980000D02*
X110445001Y-92754999D01*
X123560001Y-93080001D02*
X124460000Y-93980000D01*
X120605001Y-92754999D02*
X123234999Y-92754999D01*
X123234999Y-92754999D02*
X123560001Y-93080001D01*
X119380000Y-93980000D02*
X120605001Y-92754999D01*
X121920000Y-102870000D02*
X121920000Y-107950000D01*
X123190000Y-101600000D02*
X121920000Y-102870000D01*
X118480001Y-94879999D02*
X119380000Y-93980000D01*
X118154999Y-95205001D02*
X118480001Y-94879999D01*
X115525001Y-95205001D02*
X118154999Y-95205001D01*
X114300000Y-93980000D02*
X115525001Y-95205001D01*
X128640001Y-94879999D02*
X129540000Y-93980000D01*
X125685001Y-95205001D02*
X128314999Y-95205001D01*
X128314999Y-95205001D02*
X128640001Y-94879999D01*
X124460000Y-93980000D02*
X125685001Y-95205001D01*
X133720001Y-94879999D02*
X134620000Y-93980000D01*
X133394999Y-95205001D02*
X133720001Y-94879999D01*
X130765001Y-95205001D02*
X133394999Y-95205001D01*
X129540000Y-93980000D02*
X130765001Y-95205001D01*
X138474999Y-92754999D02*
X138800001Y-93080001D01*
X135845001Y-92754999D02*
X138474999Y-92754999D01*
X138800001Y-93080001D02*
X139700000Y-93980000D01*
X134620000Y-93980000D02*
X135845001Y-92754999D01*
X143554999Y-95205001D02*
X143880001Y-94879999D01*
X140925001Y-95205001D02*
X143554999Y-95205001D01*
X143880001Y-94879999D02*
X144780000Y-93980000D01*
X139700000Y-93980000D02*
X140925001Y-95205001D01*
X148960001Y-93080001D02*
X149860000Y-93980000D01*
X148634999Y-92754999D02*
X148960001Y-93080001D01*
X146005001Y-92754999D02*
X148634999Y-92754999D01*
X144780000Y-93980000D02*
X146005001Y-92754999D01*
X154040001Y-93080001D02*
X154940000Y-93980000D01*
X153714999Y-92754999D02*
X154040001Y-93080001D01*
X151085001Y-92754999D02*
X153714999Y-92754999D01*
X149860000Y-93980000D02*
X151085001Y-92754999D01*
X159120001Y-94879999D02*
X160020000Y-93980000D01*
X158794999Y-95205001D02*
X159120001Y-94879999D01*
X156165001Y-95205001D02*
X158794999Y-95205001D01*
X154940000Y-93980000D02*
X156165001Y-95205001D01*
X164200001Y-94879999D02*
X165100000Y-93980000D01*
X163874999Y-95205001D02*
X164200001Y-94879999D01*
X161245001Y-95205001D02*
X163874999Y-95205001D01*
X160020000Y-93980000D02*
X161245001Y-95205001D01*
X169280001Y-93080001D02*
X170180000Y-93980000D01*
X166325001Y-92754999D02*
X168954999Y-92754999D01*
X168954999Y-92754999D02*
X169280001Y-93080001D01*
X165100000Y-93980000D02*
X166325001Y-92754999D01*
X174360001Y-93080001D02*
X175260000Y-93980000D01*
X174034999Y-92754999D02*
X174360001Y-93080001D01*
X171405001Y-92754999D02*
X174034999Y-92754999D01*
X170180000Y-93980000D02*
X171405001Y-92754999D01*
X179114999Y-92754999D02*
X179440001Y-93080001D01*
X176485001Y-92754999D02*
X179114999Y-92754999D01*
X179440001Y-93080001D02*
X180340000Y-93980000D01*
X175260000Y-93980000D02*
X176485001Y-92754999D01*
X184520001Y-94879999D02*
X185420000Y-93980000D01*
X181565001Y-95205001D02*
X184194999Y-95205001D01*
X184194999Y-95205001D02*
X184520001Y-94879999D01*
X180340000Y-93980000D02*
X181565001Y-95205001D01*
G04 #@! TO.N,Net-(D103-Pad2)*
X124460000Y-99060000D02*
X124460000Y-107950000D01*
X123560001Y-99959999D02*
X124460000Y-99060000D01*
X123234999Y-100285001D02*
X123560001Y-99959999D01*
X120605001Y-100285001D02*
X123234999Y-100285001D01*
X119380000Y-99060000D02*
X120605001Y-100285001D01*
X118480001Y-98160001D02*
X119380000Y-99060000D01*
X118154999Y-97834999D02*
X118480001Y-98160001D01*
X115525001Y-97834999D02*
X118154999Y-97834999D01*
X114300000Y-99060000D02*
X115525001Y-97834999D01*
X113074999Y-97834999D02*
X113400001Y-98160001D01*
X113400001Y-98160001D02*
X114300000Y-99060000D01*
X110445001Y-97834999D02*
X113074999Y-97834999D01*
X109220000Y-99060000D02*
X110445001Y-97834999D01*
X128640001Y-98160001D02*
X129540000Y-99060000D01*
X128314999Y-97834999D02*
X128640001Y-98160001D01*
X125685001Y-97834999D02*
X128314999Y-97834999D01*
X124460000Y-99060000D02*
X125685001Y-97834999D01*
X133720001Y-99959999D02*
X134620000Y-99060000D01*
X133394999Y-100285001D02*
X133720001Y-99959999D01*
X130765001Y-100285001D02*
X133394999Y-100285001D01*
X129540000Y-99060000D02*
X130765001Y-100285001D01*
X138800001Y-99959999D02*
X139700000Y-99060000D01*
X138474999Y-100285001D02*
X138800001Y-99959999D01*
X135845001Y-100285001D02*
X138474999Y-100285001D01*
X134620000Y-99060000D02*
X135845001Y-100285001D01*
X143554999Y-100285001D02*
X143880001Y-99959999D01*
X143880001Y-99959999D02*
X144780000Y-99060000D01*
X140925001Y-100285001D02*
X143554999Y-100285001D01*
X139700000Y-99060000D02*
X140925001Y-100285001D01*
X148960001Y-99959999D02*
X149860000Y-99060000D01*
X146005001Y-100285001D02*
X148634999Y-100285001D01*
X148634999Y-100285001D02*
X148960001Y-99959999D01*
X144780000Y-99060000D02*
X146005001Y-100285001D01*
X154040001Y-98160001D02*
X154940000Y-99060000D01*
X153714999Y-97834999D02*
X154040001Y-98160001D01*
X151085001Y-97834999D02*
X153714999Y-97834999D01*
X149860000Y-99060000D02*
X151085001Y-97834999D01*
X159120001Y-98160001D02*
X160020000Y-99060000D01*
X158794999Y-97834999D02*
X159120001Y-98160001D01*
X156165001Y-97834999D02*
X158794999Y-97834999D01*
X154940000Y-99060000D02*
X156165001Y-97834999D01*
X164200001Y-98160001D02*
X165100000Y-99060000D01*
X163874999Y-97834999D02*
X164200001Y-98160001D01*
X161245001Y-97834999D02*
X163874999Y-97834999D01*
X160020000Y-99060000D02*
X161245001Y-97834999D01*
X169280001Y-99959999D02*
X170180000Y-99060000D01*
X168954999Y-100285001D02*
X169280001Y-99959999D01*
X166325001Y-100285001D02*
X168954999Y-100285001D01*
X165100000Y-99060000D02*
X166325001Y-100285001D01*
X174360001Y-98160001D02*
X175260000Y-99060000D01*
X174034999Y-97834999D02*
X174360001Y-98160001D01*
X171405001Y-97834999D02*
X174034999Y-97834999D01*
X170180000Y-99060000D02*
X171405001Y-97834999D01*
X179114999Y-100285001D02*
X179440001Y-99959999D01*
X176485001Y-100285001D02*
X179114999Y-100285001D01*
X179440001Y-99959999D02*
X180340000Y-99060000D01*
X175260000Y-99060000D02*
X176485001Y-100285001D01*
X184520001Y-99959999D02*
X185420000Y-99060000D01*
X184194999Y-100285001D02*
X184520001Y-99959999D01*
X181565001Y-100285001D02*
X184194999Y-100285001D01*
X180340000Y-99060000D02*
X181565001Y-100285001D01*
G04 #@! TD*
M02*
