M48
;DRILL file {KiCad 5.0.2-bee76a0~70~ubuntu16.04.1} date Thu 21 Nov 2019 03:26:24 PM PST
;FORMAT={-:-/ absolute / inch / decimal}
FMAT,2
INCH,TZ
T1C0.0157
T2C0.0354
T3C0.0394
%
G90
G05
T1
X4.25Y-4.
X4.35Y-4.
X4.45Y-4.
X4.55Y-4.
X4.65Y-4.
X4.75Y-4.
X4.85Y-4.
T2
X5.2Y-2.5
X5.3Y-2.5
X6.4Y-2.5
X6.5Y-2.5
X5.4Y-2.5
X5.5Y-2.5
X6.6Y-3.1
X6.7Y-3.1
X5.4Y-3.7
X5.5Y-3.7
X4.6Y-3.3
X4.7Y-3.3
X7.2Y-2.7
X7.3Y-2.7
X5.Y-2.9
X5.1Y-2.9
X5.4Y-3.1
X5.5Y-3.1
X6.6Y-3.7
X6.7Y-3.7
X5.Y-3.1
X5.1Y-3.1
X5.8Y-2.5
X5.9Y-2.5
X5.8Y-3.5
X5.9Y-3.5
X7.Y-2.7
X7.1Y-2.7
X4.8Y-2.9
X4.9Y-2.9
X6.2Y-3.3
X6.3Y-3.3
X5.6Y-2.9
X5.7Y-2.9
X6.2Y-3.1
X6.3Y-3.1
X6.8Y-2.9
X6.9Y-2.9
X7.Y-3.5
X7.1Y-3.5
X4.2Y-3.7
X4.3Y-3.7
X5.2Y-3.3
X5.3Y-3.3
X4.8Y-3.9
X4.9Y-3.9
X4.6Y-2.7
X4.7Y-2.7
X5.8Y-2.7
X5.9Y-2.7
X7.Y-3.3
X7.1Y-3.3
X4.4Y-3.3
X4.5Y-3.3
X5.6Y-3.7
X5.7Y-3.7
X6.4Y-3.5
X6.5Y-3.5
X6.8Y-3.9
X6.9Y-3.9
X5.6Y-3.3
X5.7Y-3.3
X6.4Y-3.1
X6.5Y-3.1
X5.Y-3.7
X5.1Y-3.7
X6.8Y-2.7
X6.9Y-2.7
X7.Y-3.1
X7.1Y-3.1
X4.4Y-2.7
X4.5Y-2.7
X7.2Y-3.3
X7.3Y-3.3
X6.2Y-3.5
X6.3Y-3.5
X5.4Y-2.9
X5.5Y-2.9
X4.8Y-3.7
X4.9Y-3.7
X4.2Y-2.7
X4.3Y-2.7
X4.4Y-2.5
X4.5Y-2.5
X6.6Y-2.5
X6.7Y-2.5
X4.8Y-2.7
X4.9Y-2.7
X5.2Y-2.7
X5.3Y-2.7
X6.8Y-3.1
X6.9Y-3.1
X7.Y-3.9
X7.1Y-3.9
X5.2Y-3.7
X5.3Y-3.7
X5.6Y-2.5
X5.7Y-2.5
X5.Y-2.7
X5.1Y-2.7
X6.4Y-3.9
X6.5Y-3.9
X7.2Y-3.7
X7.3Y-3.7
X7.Y-3.7
X7.1Y-3.7
X4.4Y-3.7
X4.5Y-3.7
X4.8Y-2.5
X4.9Y-2.5
X6.6Y-2.9
X6.7Y-2.9
X7.2Y-3.1
X7.3Y-3.1
X4.8Y-3.5
X4.9Y-3.5
X6.Y-3.5
X6.1Y-3.5
X6.2Y-2.7
X6.3Y-2.7
X6.Y-2.7
X6.1Y-2.7
X4.2Y-3.5
X4.3Y-3.5
X5.Y-3.9
X5.1Y-3.9
X5.8Y-3.3
X5.9Y-3.3
X6.Y-3.3
X6.1Y-3.3
X6.Y-3.9
X6.1Y-3.9
X5.6Y-2.7
X5.7Y-2.7
X4.2Y-3.3
X4.3Y-3.3
X5.4Y-3.5
X5.5Y-3.5
X4.2Y-3.9
X4.3Y-3.9
X6.4Y-2.7
X6.5Y-2.7
X6.4Y-3.7
X6.5Y-3.7
X6.2Y-2.5
X6.3Y-2.5
X5.Y-3.3
X5.1Y-3.3
X6.8Y-3.7
X6.9Y-3.7
X5.8Y-3.7
X5.9Y-3.7
X4.6Y-3.9
X4.7Y-3.9
X7.2Y-2.9
X7.3Y-2.9
X4.2Y-2.9
X4.3Y-2.9
X4.6Y-3.5
X4.7Y-3.5
X5.Y-2.5
X5.1Y-2.5
X6.2Y-2.9
X6.3Y-2.9
X5.2Y-3.5
X5.3Y-3.5
X6.6Y-3.5
X6.7Y-3.5
X7.2Y-2.5
X7.3Y-2.5
X5.4Y-3.9
X5.5Y-3.9
X6.2Y-3.7
X6.3Y-3.7
X5.8Y-3.1
X5.9Y-3.1
X4.4Y-3.9
X4.5Y-3.9
X4.6Y-2.5
X4.7Y-2.5
X6.Y-2.9
X6.1Y-2.9
X4.8Y-3.1
X4.9Y-3.1
X7.Y-2.5
X7.1Y-2.5
X6.8Y-3.5
X6.9Y-3.5
X4.8Y-3.3
X4.9Y-3.3
X6.4Y-2.9
X6.5Y-2.9
X6.4Y-3.3
X6.5Y-3.3
X6.2Y-3.9
X6.3Y-3.9
X5.4Y-2.7
X5.5Y-2.7
X5.6Y-3.9
X5.7Y-3.9
X4.6Y-2.9
X4.7Y-2.9
X6.6Y-3.9
X6.7Y-3.9
X4.4Y-3.1
X4.5Y-3.1
X5.2Y-3.9
X5.3Y-3.9
X6.6Y-2.7
X6.7Y-2.7
X7.Y-2.9
X7.1Y-2.9
X5.2Y-2.9
X5.3Y-2.9
X5.4Y-3.3
X5.5Y-3.3
X5.6Y-3.5
X5.7Y-3.5
X6.6Y-3.3
X6.7Y-3.3
X4.6Y-3.1
X4.7Y-3.1
X4.4Y-3.5
X4.5Y-3.5
X5.8Y-3.9
X5.9Y-3.9
X5.2Y-3.1
X5.3Y-3.1
X7.2Y-3.5
X7.3Y-3.5
X6.8Y-2.5
X6.9Y-2.5
X5.6Y-3.1
X5.7Y-3.1
X5.8Y-2.9
X5.9Y-2.9
X4.4Y-2.9
X4.5Y-2.9
X4.6Y-3.7
X4.7Y-3.7
X4.2Y-3.1
X4.3Y-3.1
X6.Y-2.5
X6.1Y-2.5
X5.Y-3.5
X5.1Y-3.5
X4.2Y-2.5
X4.3Y-2.5
X6.Y-3.7
X6.1Y-3.7
X6.Y-3.1
X6.1Y-3.1
X6.8Y-3.3
X6.9Y-3.3
X7.2Y-3.9
X7.3Y-3.9
T3
X4.2Y-4.25
X4.3Y-4.25
X4.4Y-4.25
X4.5Y-4.25
X4.6Y-4.25
X4.7Y-4.25
X4.8Y-4.25
X4.9Y-4.25
X5.Y-4.25
X5.1Y-4.25
X5.2Y-4.25
X5.3Y-4.25
X5.4Y-4.25
X5.5Y-4.25
X5.6Y-4.25
X5.7Y-4.25
X5.8Y-4.25
X5.9Y-4.25
X6.Y-4.25
X6.1Y-4.25
X6.2Y-4.25
X6.3Y-4.25
X6.4Y-4.25
X6.5Y-4.25
T0
M30
